<svg width="38" height="44" viewBox="0 0 38 44" fill="none" xmlns="http://www.w3.org/2000/svg">
<g clip-path="url(#clip0_6_23)">
<path fill-rule="evenodd" clip-rule="evenodd" d="M22.8075 15.6946C24.161 15.0227 25.8829 14.0334 27.6071 12.6778C27.9705 13.4296 28.0107 14.0856 27.823 14.6151C27.6903 14.9884 27.44 15.3131 27.1114 15.5714C26.7554 15.8504 26.3105 16.054 25.8189 16.1637C24.8861 16.373 23.7968 16.2506 22.8075 15.6941M23.0422 22.5799L24.8337 23.6104C21.1758 25.6522 20.1811 29.4432 18.9996 33.1355C17.8185 29.4432 16.8239 25.6517 13.166 23.6104L14.9574 22.5799C15.313 22.4461 15.5416 22.0997 15.5236 21.7216C15.3593 18.2634 16.297 16.734 17.5621 15.7741C18.0156 15.4302 18.5109 15.2576 18.9996 15.2576C19.4884 15.2576 19.9836 15.4302 20.4371 15.7741C21.7018 16.7344 22.6395 18.2634 22.4756 21.7216C22.4576 22.0997 22.6866 22.4461 23.0418 22.5799H23.0422ZM19 0C21.0709 0.0554809 23.1471 0.455677 24.9488 1.23445C26.1967 1.77457 27.3605 2.48766 28.415 3.34068C28.891 3.72579 29.2831 4.09783 29.7149 4.52618C30.8796 4.56616 32.5817 3.27786 33.372 2.07237C32.0119 6.51207 25.8062 11.7546 21.5101 13.7609C21.5084 13.7601 21.5072 13.7593 21.506 13.7584C20.735 13.1722 19.8677 12.8789 19.0004 12.8789C18.1332 12.8789 17.2659 13.1722 16.4949 13.7584C16.4937 13.7593 16.4925 13.7605 16.4908 13.7609C12.1938 11.7546 5.98858 6.51166 4.62848 2.07237C5.41873 3.27786 7.12049 4.56657 8.28517 4.52618C8.71696 4.09824 9.10901 3.72579 9.58505 3.34068C10.6391 2.48766 11.8034 1.77457 13.0512 1.23445C14.8534 0.455677 16.9292 0.0554809 19 0ZM15.1926 15.6946C13.8394 15.0227 12.1172 14.0334 10.3929 12.6778C10.0295 13.4296 9.98939 14.0856 10.1766 14.6151C10.3093 14.9884 10.5596 15.3131 10.8882 15.5714C11.2446 15.8504 11.6895 16.054 12.1811 16.1637C13.1139 16.373 14.2032 16.2506 15.1922 15.6941" fill="white"/>
<path fill-rule="evenodd" clip-rule="evenodd" d="M29.4957 11.0171C30.4449 10.0633 31.2814 9.00754 31.9537 8.06519L32.2954 8.70526C33.3949 10.8959 33.9664 13.078 33.9664 15.5335L33.9639 19.4302L33.9844 21.4499C34.0639 26.409 35.1417 31.4259 37.5825 36.0173L32.4756 31.9167L28.8623 37.7556L25.0664 34.1971L19 44.0001L12.9336 34.1975L9.13767 37.756L5.5244 31.9171L0.41748 36.0178C2.85828 31.4263 3.93571 26.409 4.01559 21.4504L4.03607 19.4306L4.03362 15.5339C4.03362 13.078 4.60469 10.8963 5.70465 8.70566L6.0459 8.06559C6.71858 9.00754 7.55471 10.0633 8.50391 11.0175L8.20731 11.6306C7.63132 12.8214 7.44082 14.153 7.88941 15.4197C8.17863 16.2352 8.70629 16.9348 9.38674 17.4688C10.0475 17.9873 10.8296 18.3369 11.6481 18.5205C12.1815 18.64 12.7247 18.6894 13.2647 18.6726C13.1389 19.3837 13.0836 20.1209 13.0803 20.8723L8.26303 23.6431L11.9803 25.7179C12.2774 25.8839 12.5604 26.0736 12.8259 26.2862C15.8906 29.0263 17.7333 37.1327 18.9996 41.0922C20.2659 37.1327 22.1086 29.0263 25.1733 26.2862C25.4387 26.074 25.7218 25.8839 26.0188 25.7179L29.7362 23.6431L24.9189 20.8723C24.9152 20.1209 24.8603 19.3837 24.7345 18.6726C25.2745 18.6894 25.8177 18.64 26.3511 18.5205C27.1696 18.3369 27.9517 17.9873 28.6124 17.4688C29.2929 16.9348 29.8206 16.2352 30.1098 15.4197C30.5584 14.1534 30.3679 12.8219 29.7919 11.6306L29.4953 11.0175L29.4957 11.0171Z" fill="white"/>
</g>
<defs>
<clipPath id="clip0_6_23">
<rect width="37.1651" height="44" fill="white" transform="translate(0.41748)"/>
</clipPath>
</defs>
</svg>
