<svg width="38" height="44" viewBox="0 0 38 44" fill="none" xmlns="http://www.w3.org/2000/svg">
<g clip-path="url(#clip0_6_21)">
<path fill-rule="evenodd" clip-rule="evenodd" d="M14.1317 2.4881C11.5286 3.85343 9.39904 5.00892 9.39957 5.05596C9.40079 5.17719 15.6468 8.36262 15.8685 8.35487C15.9693 8.35152 16.7009 8.01234 17.4942 7.60146L18.9367 6.85439L20.5119 7.66982L22.0872 8.48543L24.667 7.31813C28.5542 5.55918 28.9579 5.36642 28.8947 5.30176C28.8108 5.21577 27.4166 4.46166 23.6338 2.4562C21.8057 1.48695 20.0313 0.536733 19.6906 0.344328C19.3498 0.151747 19.0247 -0.00295254 18.9678 4.27739e-05C18.9109 0.00303809 16.7346 1.12258 14.1315 2.48792L14.1317 2.4881ZM2.71489 8.4412L0.0052492 9.85077V16.0364C0.0052492 19.4386 0.0407688 22.2221 0.0845121 22.2221C0.128255 22.2221 1.4612 21.6402 3.04698 20.9289L5.93037 19.6356V13.1155L7.33943 13.8885C8.42514 14.4836 9.51172 15.0774 10.5987 15.6701L12.4488 16.6789L13.2721 16.3039C13.7884 16.0683 14.3037 15.8307 14.818 15.5905C15.2153 15.4041 16.1908 14.9617 16.9857 14.6072C17.7806 14.2525 18.5164 13.8957 18.6207 13.8145C18.7592 13.7064 17.0693 12.7661 12.3701 10.336C8.82793 8.50428 5.81611 7.01138 5.67718 7.0186C5.53825 7.02583 4.20531 7.66577 2.71489 8.44103V8.4412ZM29.3827 8.83694C27.5373 9.6758 26.0261 10.3957 26.0243 10.4368C26.0227 10.4778 27.0285 11.0801 28.2596 11.775C29.4905 12.4701 30.4978 13.0758 30.4978 13.1215C30.4978 13.1671 29.4085 13.6985 28.0773 14.3029C26.7457 14.907 23.3805 16.4375 20.5986 17.7038L11.2772 21.9466C8.93239 23.014 6.81888 23.976 6.5804 24.0847C1.79103 26.2679 0.474703 26.8737 0.293955 26.9776C0.112158 27.0823 0.0710392 27.6905 0.0386691 30.7433L0 34.3844L2.42321 35.6276L4.84624 36.8708L8.20625 35.3439C10.0543 34.5042 11.5663 33.7731 11.5663 33.7192C11.5663 33.6653 11.2247 33.4415 10.8076 33.2211C10.3903 33.0007 9.52852 32.513 8.89267 32.1368C8.25681 31.7606 7.62289 31.4156 7.48361 31.3698C7.3445 31.3242 7.2327 31.2444 7.23497 31.1922C7.23725 31.1403 8.71682 30.4327 10.5227 29.6195C14.0302 28.0403 16.7145 26.8231 22.4772 24.199C25.0541 23.0258 27.6314 21.8537 30.2088 20.6817C32.474 19.652 35.1079 18.4496 36.0616 18.0095L37.7958 17.2094L37.8343 13.5269L37.873 9.8446L35.4153 8.57441C34.0634 7.87579 32.9081 7.30598 32.8476 7.30809C32.787 7.31003 31.2277 7.99807 29.3824 8.83711L29.3827 8.83694ZM37.1376 22.1219C36.7754 22.3 36.0601 22.6336 35.5479 22.863C35.0358 23.0924 34.064 23.5339 33.3882 23.8444L32.1599 24.4085L32.1319 27.6414C32.1165 29.4194 32.0514 30.8663 31.9874 30.8569C31.842 30.8351 29.5397 29.6461 27.2255 28.3974C25.5552 27.4962 25.4502 27.4604 25.0577 27.6562C24.8308 27.7695 23.4746 28.3819 22.0438 29.0175C20.6131 29.653 19.396 30.2145 19.3386 30.2653C19.2815 30.316 22.1609 31.8875 25.7375 33.7578L32.2402 37.1582L35.0181 35.7111C36.5458 34.9154 37.8448 34.1895 37.9046 34.0982C38.0394 33.893 38.0278 21.7697 37.8929 21.7861C37.8396 21.7926 37.4996 21.9436 37.1374 22.1217L37.1376 22.1219ZM21.7548 36.3516C21.2729 36.5602 20.7912 36.7692 20.3097 36.9783C18.8555 37.6119 19.1403 37.6329 17.4102 36.7656C16.2578 36.1881 15.7611 36.0098 15.5455 36.0963C15.3838 36.1611 13.9919 36.7917 12.4523 37.4976C10.9127 38.2034 9.59974 38.7808 9.53447 38.7808C8.88847 38.7808 9.96245 39.4269 14.1062 41.5317L18.9659 44L21.0106 42.9836C22.1352 42.4245 24.4035 41.3048 26.0514 40.4957C27.6991 39.6863 29.027 39.003 29.0022 38.9772C28.9772 38.9515 27.5964 38.2376 25.9338 37.3908L22.9108 35.8512L21.7548 36.3519V36.3516Z" fill="#08A2C9"/>
</g>
<defs>
<clipPath id="clip0_6_21">
<rect width="38" height="44" fill="white"/>
</clipPath>
</defs>
</svg>
