<svg width="33" height="32" viewBox="0 0 33 32" fill="none" xmlns="http://www.w3.org/2000/svg">
<g clip-path="url(#clip0_1_161)">
<path fill-rule="evenodd" clip-rule="evenodd" d="M27.5225 5.15662C27.852 5.01794 28.2126 4.97011 28.5669 5.01811C28.9211 5.06611 29.2561 5.20818 29.5368 5.42953C29.8175 5.65089 30.0337 5.94344 30.163 6.27673C30.2923 6.61002 30.3299 6.97187 30.2718 7.32462L27.2478 25.6673C26.9545 27.4366 25.0132 28.4513 23.3905 27.57C22.0332 26.8326 20.0172 25.6966 18.2038 24.5113C17.2972 23.918 14.5199 22.018 14.8612 20.666C15.1545 19.51 19.8212 15.166 22.4878 12.5833C23.5345 11.5686 23.0572 10.9833 21.8212 11.9166C18.7519 14.234 13.8238 17.758 12.1945 18.75C10.7572 19.6246 10.0078 19.774 9.11185 19.6246C7.47718 19.3526 5.96118 18.9313 4.72385 18.418C3.05185 17.7246 3.13318 15.426 4.72252 14.7566L27.5225 5.15662Z" fill="white"/>
</g>
<defs>
<clipPath id="clip0_1_161">
<rect width="32" height="32" fill="white" transform="translate(0.5)"/>
</clipPath>
</defs>
</svg>
